<mxfile host="65bd71144e">
    <diagram id="VXYwFd_KbL-tHWQ31Wvv" name="Page-1">
        <mxGraphModel dx="1998" dy="864" grid="1" gridSize="10" guides="1" tooltips="1" connect="1" arrows="1" fold="1" page="1" pageScale="1" pageWidth="850" pageHeight="1100" math="0" shadow="0">
            <root>
                <mxCell id="0"/>
                <mxCell id="1" parent="0"/>
                <mxCell id="3" value="AWS Typescript CDK&amp;nbsp;" style="rounded=1;whiteSpace=wrap;html=1;" vertex="1" parent="1">
                    <mxGeometry x="50" y="80" width="160" height="40" as="geometry"/>
                </mxCell>
                <mxCell id="4" value="Gitlab" style="rounded=1;whiteSpace=wrap;html=1;" vertex="1" parent="1">
                    <mxGeometry x="685" y="80" width="90" height="40" as="geometry"/>
                </mxCell>
                <mxCell id="5" value="Infrastructure" style="text;strokeColor=none;fillColor=none;html=1;fontSize=24;fontStyle=1;verticalAlign=middle;align=center;" vertex="1" parent="1">
                    <mxGeometry x="80" y="20" width="100" height="40" as="geometry"/>
                </mxCell>
                <mxCell id="6" value="Backend" style="text;strokeColor=none;fillColor=none;html=1;fontSize=24;fontStyle=1;verticalAlign=middle;align=center;" vertex="1" parent="1">
                    <mxGeometry x="853" y="22" width="100" height="40" as="geometry"/>
                </mxCell>
                <mxCell id="7" value="Reliability" style="text;strokeColor=none;fillColor=none;html=1;fontSize=24;fontStyle=1;verticalAlign=middle;align=center;" vertex="1" parent="1">
                    <mxGeometry x="510" y="22" width="100" height="40" as="geometry"/>
                </mxCell>
                <mxCell id="9" value="Frontend" style="text;strokeColor=none;fillColor=none;html=1;fontSize=24;fontStyle=1;verticalAlign=middle;align=center;" vertex="1" parent="1">
                    <mxGeometry x="1050" y="22" width="100" height="40" as="geometry"/>
                </mxCell>
                <mxCell id="12" value="Security" style="text;strokeColor=none;fillColor=none;html=1;fontSize=24;fontStyle=1;verticalAlign=middle;align=center;" vertex="1" parent="1">
                    <mxGeometry x="1240" y="22" width="100" height="40" as="geometry"/>
                </mxCell>
                <mxCell id="13" value="CI/CD" style="text;strokeColor=none;fillColor=none;html=1;fontSize=24;fontStyle=1;verticalAlign=middle;align=center;" vertex="1" parent="1">
                    <mxGeometry x="680" y="22" width="100" height="40" as="geometry"/>
                </mxCell>
                <mxCell id="14" value="Orchestration" style="text;strokeColor=none;fillColor=none;html=1;fontSize=24;fontStyle=1;verticalAlign=middle;align=center;" vertex="1" parent="1">
                    <mxGeometry x="300" y="20" width="100" height="40" as="geometry"/>
                </mxCell>
                <mxCell id="15" value="Documentation" style="text;strokeColor=none;fillColor=none;html=1;fontSize=24;fontStyle=1;verticalAlign=middle;align=center;" vertex="1" parent="1">
                    <mxGeometry x="1450" y="22" width="100" height="40" as="geometry"/>
                </mxCell>
                <mxCell id="16" value="ReactJS" style="rounded=1;whiteSpace=wrap;html=1;" vertex="1" parent="1">
                    <mxGeometry x="1055" y="80" width="90" height="40" as="geometry"/>
                </mxCell>
                <mxCell id="17" value="Openshift" style="rounded=1;whiteSpace=wrap;html=1;" vertex="1" parent="1">
                    <mxGeometry x="305" y="80" width="90" height="40" as="geometry"/>
                </mxCell>
                <mxCell id="20" value="Python" style="rounded=1;whiteSpace=wrap;html=1;" vertex="1" parent="1">
                    <mxGeometry x="858" y="80" width="90" height="40" as="geometry"/>
                </mxCell>
                <mxCell id="21" value="AWS Cloudwatch" style="rounded=1;whiteSpace=wrap;html=1;" vertex="1" parent="1">
                    <mxGeometry x="510" y="80" width="90" height="40" as="geometry"/>
                </mxCell>
                <mxCell id="22" value="Prometheus" style="rounded=1;whiteSpace=wrap;html=1;" vertex="1" parent="1">
                    <mxGeometry x="510" y="140" width="90" height="40" as="geometry"/>
                </mxCell>
                <mxCell id="23" value="cdk-dia / cfn-dia" style="rounded=1;whiteSpace=wrap;html=1;" vertex="1" parent="1">
                    <mxGeometry x="1445" y="80" width="110" height="40" as="geometry"/>
                </mxCell>
                <mxCell id="26" value="Bun / inquirerJS / zx" style="rounded=1;whiteSpace=wrap;html=1;" vertex="1" parent="1">
                    <mxGeometry x="1432.5" y="140" width="135" height="40" as="geometry"/>
                </mxCell>
                <mxCell id="27" value="Docker" style="rounded=1;whiteSpace=wrap;html=1;" vertex="1" parent="1">
                    <mxGeometry x="305" y="139" width="90" height="40" as="geometry"/>
                </mxCell>
                <mxCell id="28" value="Shell" style="rounded=1;whiteSpace=wrap;html=1;" vertex="1" parent="1">
                    <mxGeometry x="685" y="140" width="90" height="40" as="geometry"/>
                </mxCell>
                <mxCell id="29" value="YAML / JSON" style="rounded=1;whiteSpace=wrap;html=1;" vertex="1" parent="1">
                    <mxGeometry x="50" y="140" width="70" height="40" as="geometry"/>
                </mxCell>
                <mxCell id="30" value="jq" style="rounded=1;whiteSpace=wrap;html=1;" vertex="1" parent="1">
                    <mxGeometry x="140" y="140" width="70" height="40" as="geometry"/>
                </mxCell>
                <mxCell id="32" value="Helm" style="rounded=1;whiteSpace=wrap;html=1;" vertex="1" parent="1">
                    <mxGeometry x="685" y="200" width="90" height="40" as="geometry"/>
                </mxCell>
                <mxCell id="34" value="Networking" style="rounded=1;whiteSpace=wrap;html=1;" vertex="1" parent="1">
                    <mxGeometry x="510" y="200" width="90" height="40" as="geometry"/>
                </mxCell>
                <mxCell id="35" value="Openshift ACM" style="rounded=1;whiteSpace=wrap;html=1;" vertex="1" parent="1">
                    <mxGeometry x="1240" y="80" width="105" height="40" as="geometry"/>
                </mxCell>
                <mxCell id="36" value="Nessus" style="rounded=1;whiteSpace=wrap;html=1;" vertex="1" parent="1">
                    <mxGeometry x="1240" y="139" width="105" height="40" as="geometry"/>
                </mxCell>
            </root>
        </mxGraphModel>
    </diagram>
</mxfile>